<?xml version="1.0" encoding="UTF-8"?>
<svg width="36px" height="36px" viewBox="0 0 36 36" version="1.1" xmlns="http://www.w3.org/2000/svg" xmlns:xlink="http://www.w3.org/1999/xlink">
    <g id="心程后台PC" stroke="none" stroke-width="1" fill="none" fill-rule="evenodd">
        <g id="01_2表格样式" transform="translate(-1744.000000, -14.000000)">
            <g id="顶部导航" transform="translate(200.000000, 0.000000)">
                <g id="icon_头像" transform="translate(1544.000000, 14.000000)">
                    <circle id="椭圆形" fill="#ECEDEE" cx="18" cy="18" r="18"></circle>
                    <g id="用户" transform="translate(10.588235, 10.588235)" fill="#C5CCD8" fill-rule="nonzero">
                        <path d="M3.33713578,4.10219679 C3.33713578,1.84009453 5.13713814,0 7.35,0 C9.56284746,0 11.3628498,1.8400798 11.3628498,4.10219679 C11.3628498,6.36444633 9.56284746,8.20430521 7.35,8.20430521 C5.13713814,8.20430521 3.33713578,6.36444633 3.33713578,4.10219679 Z M0,14.690314 C0.0863983841,13.6984029 0.552217786,10.1836355 4.13258584,8.30124299 C5.02058604,9.01381367 6.13615817,9.44286125 7.35001441,9.44286125 C8.57051224,9.44286125 9.69212088,9.00945427 10.5824982,8.28959337 C14.1783393,10.1640476 14.6124202,13.6541756 14.7,14.690211 C14.6786489,14.7113305 0.021221414,14.6919488 0,14.690314 L0,14.690314 Z" id="形状"></path>
                    </g>
                </g>
            </g>
        </g>
    </g>
</svg>