<?xml version="1.0" encoding="UTF-8"?>
<svg width="64px" height="64px" viewBox="0 0 64 64" version="1.1" xmlns="http://www.w3.org/2000/svg" xmlns:xlink="http://www.w3.org/1999/xlink">
    <g id="心程后台PC" stroke="none" stroke-width="1" fill="none" fill-rule="evenodd">
        <g id="01_2表格样式" transform="translate(-1856.000000, 0.000000)">
            <g id="顶部导航" transform="translate(200.000000, 0.000000)">
                <g id="icon_退出登录" transform="translate(1656.000000, 0.000000)">
                    <rect id="矩形" fill="none" x="0" y="0" width="64" height="64"></rect>
                    <g transform="translate(23.000000, 23.000000)">
                        <rect id="矩形" x="0" y="0" width="18" height="18"></rect>
                        <g id="退出-(4)" transform="translate(1.285714, 0.000000)" fill="#64696D" fill-rule="nonzero">
                            <path d="M8.35146614,7.28204651 C8.55670922,7.28204651 8.72958705,7.21158725 8.87019248,7.0706222 C9.01079791,6.92958731 9.08107741,6.7600149 9.08107741,6.56192826 L9.08107741,0.731523941 C9.08107741,0.533367467 9.01079791,0.361909644 8.87019248,0.217127156 C8.72956381,0.0723446695 8.55668599,0 8.35146614,0 C8.15381519,0 7.98467541,0.0723679622 7.84406996,0.217127156 C7.70346453,0.361909644 7.63318502,0.533390737 7.63318502,0.731523941 L7.63318502,6.56190497 C7.63318502,6.75996832 7.70346453,6.929564 7.84406996,7.07059891 C7.98467541,7.21158725 8.15383843,7.28204651 8.35146614,7.28204651 Z M16.4715463,7.6180722 C16.3096504,6.96282676 16.0730172,6.34182164 15.7618092,5.75510346 C15.4506013,5.16850164 15.0771007,4.62244825 14.6413538,4.11694327 C14.2055838,3.61143828 13.7074978,3.15891156 13.147305,2.7595028 C11.6350303,2.81220175 11.7979246,3.92074207 12.0617688,4.44859289 C13.7621752,5.62731313 14.8764779,7.59549356 14.8764779,9.82493423 C14.8764779,13.4325784 11.9593794,16.3571378 8.36093892,16.3571378 C4.76249843,16.3571378 1.84539995,13.4325784 1.84539995,9.82493423 C1.84539995,7.67675333 2.87981112,5.77090849 4.47641187,4.58034031 C4.69533008,4.06470986 4.77988836,2.89404343 3.3801956,2.89057518 C2.85724366,3.29000722 2.38413981,3.73932172 1.96090722,4.23868161 C1.53758176,4.73787856 1.1828177,5.2745979 0.896336448,5.84874655 C0.610017713,6.42298831 0.389009919,7.0282582 0.233336297,7.66483556 C0.0776858853,8.30141292 0,8.95053655 0,9.61199694 C0,10.7729569 0.217803757,11.8619446 0.653666701,12.8792859 C1.08932068,13.8964177 1.68691701,14.7827099 2.44640925,15.5378134 C3.20587829,16.2931031 4.0929045,16.8921347 5.10765042,17.3352343 C6.12239634,17.7783804 7.20240676,18 8.34786746,18 C9.50556378,18 10.5919823,17.7784037 11.6065192,17.3352343 C12.6212884,16.892158 13.5051802,16.2931263 14.2585662,15.5378134 C15.0117433,14.782803 15.6093397,13.8965108 16.0513088,12.8792859 C16.4933708,11.8619446 16.7142857,10.7729569 16.7142857,9.61209004 C16.7142857,8.93799026 16.6333029,8.27341077 16.4715463,7.6180722 Z" id="形状"></path>
                        </g>
                    </g>
                </g>
            </g>
        </g>
    </g>
</svg>