<?xml version="1.0" encoding="UTF-8"?>
<svg width="20px" height="20px" viewBox="0 0 20 20" version="1.1" xmlns="http://www.w3.org/2000/svg" xmlns:xlink="http://www.w3.org/1999/xlink">
    <g id="页面-1" stroke="none" stroke-width="1" fill="none" fill-rule="evenodd">
        <g id="02_1机械监控" transform="translate(-232.000000, -77.000000)">
            <g id="编组-125" transform="translate(200.000000, 64.000000)">
                <g id="编组" transform="translate(20.000000, 8.000000)">
                    <g id="icon_首页" transform="translate(12.000000, 5.000000)">
                        <polygon id="路径" points="0 0 20 0 20 20 0 20"></polygon>
                        <g id="首页" transform="translate(2.000000, 2.000000)" fill="currentColor" fill-rule="nonzero">
                            <path d="M1.45454547,6.17272593 L1.45454547,14.5445655 L14.5454546,14.5445655 L14.5454546,6.18654564 L7.78763637,1.45438333 L1.45454547,6.17272593 Z M0.585454559,5.00605081 L6.91927275,0.287708203 C7.42216599,-0.0865930984 8.10826809,-0.0965589498 8.6218182,0.262978188 L15.3796364,4.99441314 C15.7683568,5.26657429 16,5.71125656 16,6.1858183 L16,14.5452929 C16,15.3487054 15.3487778,16 14.5454546,16 L1.45454547,16 C0.651222194,16 0,15.3487054 0,14.5452929 L0,6.17272593 C0,5.71318091 0.217000645,5.28062896 0.585454559,5.00605081 Z M5.61090911,10.0175169 C5.20924747,10.0175169 4.88363637,10.3431642 4.88363637,10.7448705 L4.88363637,10.7615996 C4.88363637,11.1633059 5.20924747,11.4889532 5.61090911,11.4889532 L10.3890909,11.4889532 C10.7907526,11.4889532 11.1163637,11.1633059 11.1163637,10.7615996 L11.1163637,10.7441431 C11.1163637,10.3424368 10.7907526,10.0167895 10.3890909,10.0167895 L5.61090911,10.0167895 L5.61090911,10.0175169 Z" id="形状"></path>
                        </g>
                    </g>
                </g>
            </g>
        </g>
    </g>
</svg>