<?xml version="1.0" encoding="UTF-8"?>
<svg width="20px" height="20px" viewBox="0 0 20 20" version="1.1" xmlns="http://www.w3.org/2000/svg" xmlns:xlink="http://www.w3.org/1999/xlink">
    <g id="页面-1" stroke="none" stroke-width="1" fill="none" fill-rule="evenodd">
        <g id="01_1首页" transform="translate(-24.000000, -816.000000)">
            <g id="左侧导航_首页" transform="translate(0.000000, 64.000000)">
                <g id="筛选" transform="translate(0.000000, 20.000000)">
                    <g id="装备管理备份-7" transform="translate(0.000000, 720.000000)">
                        <g id="icon_系统管理" transform="translate(24.000000, 12.000000)">
                            <polygon id="路径" points="0 0 20 0 20 20 0 20"></polygon>
                            <g id="winfo-icon-系统管理" transform="translate(2.000000, 2.000000)" fill="currentColor" fill-rule="nonzero">
                                <path d="M15.5362578,6.36528353 L14.2846911,6.07896208 C14.1593554,5.66737501 13.9982095,5.27726205 13.8066249,4.91399172 L14.4870188,3.82775976 C14.6302596,3.59870261 14.5944494,3.28374902 14.4028648,3.09227156 L12.9095792,1.59803154 C12.7179946,1.40655408 12.4082363,1.3707639 12.1736795,1.51392462 L11.0868397,2.19393804 C10.7215756,2.00067107 10.3312444,1.83961526 9.91942704,1.71434963 L9.63294539,0.465272341 C9.58102059,0.234425679 9.36615936,0 9.05461056,0 L6.94001791,0 C6.66965085,0 6.42076992,0.200425008 6.36168308,0.465272341 L6.07520143,1.71613913 C5.66338406,1.84140476 5.27305282,2.00246057 4.90957923,2.19393804 L3.82094897,1.51392462 C3.59176365,1.3707639 3.27663384,1.40655408 3.08504924,1.59803154 L1.59176365,3.09048205 C1.40017905,3.28195951 1.36436885,3.5969131 1.50760967,3.82597025 L2.18979409,4.91220221 C1.99641898,5.27547254 1.83527305,5.66737501 1.71172784,6.07896208 L0.460161146,6.36528353 C0.222023277,6.4189688 0.0322291853,6.62655184 0.0017905103,6.87350408 L0,6.88782015 L0,9.11396935 L0.0017905103,9.12828543 C0.0322291853,9.37523767 0.222023277,9.58282071 0.458370636,9.63650598 L1.70993733,9.92282742 C1.83527305,10.3344145 1.99641898,10.7245275 2.18800358,11.0877978 L1.50760967,12.1740298 C1.36436885,12.4030869 1.40017905,12.7180405 1.59176365,12.909518 L3.08504924,14.4019685 C3.27663384,14.5934459 3.59176365,14.6292361 3.82094897,14.4860754 L4.90778872,13.806062 C5.27305282,13.9993289 5.66338406,14.1603847 6.07520143,14.2856504 L6.36168308,15.5347277 C6.41897941,15.795996 6.66606983,15.996421 6.93643688,16 L9.05640107,16 C9.32855864,16 9.57564906,15.799575 9.6347359,15.5347277 L9.92121755,14.2856504 C10.2291853,14.1925959 10.5282005,14.0762778 10.8146822,13.9402751 L11.992838,15.1177721 C12.2846911,15.409462 12.6195166,15.4703053 12.8487019,15.4703053 C13.1853178,15.4703053 13.4753805,15.3521977 13.7099373,15.1177721 L15.1208594,13.707639 L15.136974,13.6897439 C15.3661594,13.4427916 15.47359,13.1385751 15.470009,12.7591992 C15.470009,12.5713007 15.4341987,12.1042389 15.1065354,11.7964434 L13.9785139,10.7316855 C14.0984781,10.4704172 14.2005372,10.1984118 14.2846911,9.92282742 L15.5344673,9.63650598 C15.7958818,9.5792417 15.9946285,9.33228945 16,9.06207359 L16,6.94329493 C16,6.67307907 15.8030439,6.42433732 15.5362578,6.36528353 L15.5362578,6.36528353 Z M9.65085049,11.1021139 C9.49686661,10.9482161 9.26051925,10.8909518 9.04923903,10.9589531 L9.04565801,10.9607426 C8.74485228,11.0609552 8.41181737,11.1074824 7.99641898,11.1074824 C7.1477171,11.1074824 6.33661594,10.7835813 5.76902417,10.2198859 C5.20501343,9.65619058 4.89167413,8.87417515 4.8863026,8.01878984 L6.34198747,9.47366066 C6.47448523,9.60966335 6.67323187,9.67229616 6.86123545,9.64187451 L8.80572963,9.28934124 C9.04565801,9.24460351 9.24261415,9.04775752 9.2873769,8.80796332 L9.64010743,6.86992506 C9.67591764,6.6784476 9.61145927,6.47623308 9.47358997,6.3402304 L8.02506714,4.89251762 C8.07520143,4.89072811 8.12354521,4.89072811 8.1736795,4.89072811 C8.94717995,4.89072811 9.63831692,5.1877866 10.2256043,5.77295605 C10.775291,6.32233531 11.0975828,7.1347724 11.1083259,8.00089475 C11.1136974,8.39458674 11.0671441,8.72385639 10.961504,9.03880998 L10.961504,9.04059949 C10.8898836,9.25713007 10.954342,9.50587183 11.1208594,9.6597696 L14.2506714,12.6196175 C14.2649955,12.6536182 14.2829006,12.7180405 14.2829006,12.7591992 C14.2811101,12.7878313 14.259624,12.8629907 14.2435094,12.9041494 L12.8916741,14.2552287 C12.87735,14.2623868 12.8576544,14.2695448 12.8415398,14.2749133 C12.8343778,14.2731238 12.8290063,14.2695448 12.8236347,14.2677553 L9.65085049,11.1021139 Z M13.2479857,9.28039369 C13.1978514,9.48439772 13.136974,9.68124371 13.0671441,9.86914215 L12.1844226,9.03344145 C12.263205,8.6862767 12.3008057,8.33732245 12.2972247,7.99194721 C12.2829006,6.8180293 11.8334825,5.70316519 11.0635631,4.93188681 C10.6624888,4.5310368 10.2059087,4.22145174 9.70635631,4.01207919 C9.21933751,3.80807516 8.70367055,3.70428364 8.1736795,3.70428364 C7.7743957,3.70428364 7.17457475,3.72396824 6.58907789,3.90291914 C6.3992838,3.96018342 6.25067144,4.12660776 6.19874664,4.33598032 C6.14682184,4.54714238 6.20232766,4.75651493 6.34556849,4.89609663 L8.41539839,6.96476904 L8.19337511,8.19416173 L6.96866607,8.41785035 L4.88988362,6.3402304 C4.75022381,6.2006487 4.54431513,6.14696343 4.33661594,6.19706968 C4.12891674,6.24538642 3.96777081,6.38675763 3.90510295,6.57286657 C3.76723366,6.98624315 3.69919427,7.45151549 3.69919427,7.99910525 C3.69919427,9.18018119 4.13786929,10.2682027 4.93285586,11.0627447 C5.33751119,11.4671737 5.82273948,11.7803378 6.37063563,11.9932893 C6.8863026,12.1937143 7.43419875,12.2939269 7.99820949,12.2939269 C8.33482543,12.2939269 8.68576544,12.2527681 9.04207699,12.1704507 L9.91763653,13.0401521 C9.70098478,13.1260485 9.49149508,13.1922604 9.28200537,13.2423666 L9.28021486,13.2423666 C9.06893465,13.2960519 8.89346464,13.4732133 8.84512086,13.6861649 L8.58549687,14.804608 L7.41271262,14.804608 L7.15308863,13.6879544 C7.10474485,13.4714238 6.93285586,13.2960519 6.71620412,13.2423666 C6.15219338,13.1045744 5.62578335,12.8433061 5.18531782,12.6035119 C5.03670546,12.522984 4.83258729,12.4514036 4.56759176,12.6160385 L3.58997314,13.2244715 L2.7645479,12.3995079 L3.3733214,11.422436 C3.50402865,11.2148529 3.50581916,11.0090594 3.38227395,10.7961078 C3.08325873,10.2860978 2.870188,9.77250867 2.74664279,9.27323566 C2.69471799,9.06207359 2.51566697,8.88670171 2.30259624,8.83838497 L1.18352731,8.57890616 L1.18352731,7.41035678 L2.30080573,7.15087798 C2.51745748,7.10256123 2.69292748,6.93076837 2.74664279,6.71423778 C2.86302596,6.23285986 3.06893465,5.74253439 3.37153089,5.21105022 L3.3733214,5.20926071 C3.41987466,5.12515379 3.56311549,4.869254 3.37511191,4.57040599 L2.76633841,3.59333408 L3.59176365,2.76837043 L4.56938227,3.37680349 C4.77708147,3.50743765 4.98299015,3.50922716 5.19606088,3.38575103 C5.70635631,3.08690303 6.21844226,2.87395146 6.71978514,2.75047534 C6.93106535,2.69679007 7.10653536,2.51962868 7.15487914,2.30667711 L7.41450313,1.18823398 L8.58370636,1.18823398 L8.84333035,2.3048876 C8.89167413,2.52141819 9.06356312,2.69500056 9.28021486,2.75047534 C9.8442256,2.88826753 10.3706356,3.15132536 10.8111012,3.38933005 C10.9597135,3.46985796 11.1638317,3.54143832 11.4306177,3.37680349 L12.4082363,2.76837043 L13.2336616,3.59333408 L12.6230976,4.57040599 C12.4959714,4.770831 12.4923903,4.98557208 12.6123545,5.19494464 L12.614145,5.19673415 C12.9131603,5.70674421 13.126231,6.2203333 13.2497762,6.71960631 C13.3034915,6.93076837 13.480752,7.10614025 13.6938227,7.154457 L14.8128917,7.4139358 L14.8128917,8.58248518 L13.6938227,8.8437535 C13.477171,8.89385975 13.301701,9.0638631 13.2479857,9.28039369 Z" id="形状"></path>
                            </g>
                        </g>
                    </g>
                </g>
            </g>
        </g>
    </g>
</svg>